<?xml version="1.0" standalone="no"?><!DOCTYPE svg PUBLIC "-//W3C//DTD SVG 1.1//EN" "http://www.w3.org/Graphics/SVG/1.1/DTD/svg11.dtd"><svg t="1506477027806" class="icon" style="" viewBox="0 0 1024 1024" version="1.1" xmlns="http://www.w3.org/2000/svg" p-id="5313" xmlns:xlink="http://www.w3.org/1999/xlink" width="48" height="48"><defs><style type="text/css"></style></defs><path d="M511.28832 8.61696c-277.13536 0-502.67136 225.536-502.67136 502.61504 0 277.26848 225.40288 502.66624 502.67136 502.66624 277.2736 0 502.67136-225.39776 502.67136-502.66624-0.06144-277.08416-225.46432-502.61504-502.67136-502.61504z m278.34368 363.40736l-333.48096 337.0752c-0.06656 0.11776-0.18944 0.11776-0.31232 0.25088-0.12288 0.06144-0.12288 0.32256-0.32256 0.32256-2.64192 2.76992-5.85728 4.16256-9.00608 5.91872-1.57696 0.94208-2.77504 2.26816-4.41344 2.89792a40.43776 40.43776 0 0 1-15.55968 3.0208c-5.35552 0-10.71104-0.95232-15.75424-3.1488-1.6384-0.75776-2.96448-2.07872-4.54144-2.95936-3.08736-1.71008-6.35904-3.33312-9.0112-5.9904a1.34144 1.34144 0 0 1-0.18944-0.31232c-0.06144-0.07168-0.25088-0.07168-0.31744-0.32256l-163.96288-168.43776c-16.06656-16.45056-15.62624-42.84928 0.88576-58.9824 16.44544-15.88224 42.78784-15.62624 58.79296 1.00864l134.3488 138.00448 303.61088-306.94912c16.06656-16.384 42.39872-16.51712 58.78784-0.31744 16.32256 16.13312 16.57344 42.5984 0.44544 58.92096z" fill="#333333" p-id="5314"></path></svg>