<?xml version="1.0" standalone="no"?><!DOCTYPE svg PUBLIC "-//W3C//DTD SVG 1.1//EN" "http://www.w3.org/Graphics/SVG/1.1/DTD/svg11.dtd"><svg t="1503996711701" class="icon" style="" viewBox="0 0 1024 1024" version="1.1" xmlns="http://www.w3.org/2000/svg" p-id="2669" xmlns:xlink="http://www.w3.org/1999/xlink" width="64" height="64"><defs><style type="text/css"></style></defs><path d="M510.836 7.908c-277.731 0-502.971 225.239-502.971 502.971s225.239 502.971 502.971 502.971 502.971-225.239 502.971-502.971-225.239-502.971-502.971-502.971v0 0zM507.601 862.843c-40.932 0-74.238-32.605-74.238-72.731 0-40.119 33.185-72.729 74.238-72.729 40.926 0 74.229 32.61 74.229 72.729 0 40.125-33.185 72.731-74.229 72.731v0 0zM706.935 451.334c-14.565 22.893-45.444 53.996-92.846 93.425-24.514 20.348-39.773 36.766-45.673 49.255-5.893 12.37-8.672 34.574-8.096 66.604h-105.677c-0.233-15.149-0.462-24.401-0.462-27.756 0-34.223 5.663-62.317 16.994-84.404 11.33-22.085 33.993-46.945 67.874-74.463 33.879-27.635 54.226-45.673 60.821-54.226 10.174-13.527 15.373-28.444 15.373-44.635 0-22.544-9.129-41.852-27.168-58.038-18.037-16.074-42.551-24.17-73.191-24.17-29.601 0-54.347 8.442-74.233 25.21-19.888 16.762-37.002 53.764-41.050 76.659-3.817 21.623-107.994 30.758-106.722-13.066 1.269-43.823 24.051-91.343 63.132-125.798 39.085-34.457 90.421-51.689 153.898-51.689 66.836 0 119.905 17.462 159.45 52.375 39.543 34.918 59.202 75.505 59.202 121.87 0.112 25.668-7.171 49.951-21.625 72.845v0 0zM706.935 451.334z" p-id="2670" fill="#ffffff"></path></svg>