<?xml version="1.0" standalone="no"?><!DOCTYPE svg PUBLIC "-//W3C//DTD SVG 1.1//EN" "http://www.w3.org/Graphics/SVG/1.1/DTD/svg11.dtd"><svg t="1506651318854" class="icon" style="" viewBox="0 0 1024 1024" version="1.1" xmlns="http://www.w3.org/2000/svg" p-id="2602" xmlns:xlink="http://www.w3.org/1999/xlink" width="48" height="48"><defs><style type="text/css"></style></defs><path d="M735.249829 730.035844c0-84.391997-5.631327-133.616024-29.536643-177.219855-14.067188-25.318712-33.754573-45.006097-59.073284-63.291215 23.905316-16.882851 42.190434-37.983632 54.855354-61.888948 22.503049-43.60383 26.720979-87.20766 26.720979-156.130202 0-97.045788-14.067188-163.152667-64.704611-213.79009C624.136853 18.329635 569.281499 0.044516 508.794818 0.044516c-60.475552 0-113.928639 18.285118-153.303409 57.671018-50.637424 50.637424-64.704611 116.744302-64.704612 213.79009 0 68.922542 4.22906 112.515243 26.720979 156.130202 12.66492 23.905316 30.938909 45.006097 54.866484 61.877819-25.329841 18.296247-46.419493 37.983632-59.084414 63.302344C289.38453 596.40869 283.753203 645.643847 283.753203 730.035844c0 109.710709 7.033594 175.817587 66.106879 234.890871 39.3859 39.3859 99.861451 59.073285 160.348132 59.073285 60.475552 0 119.548837-19.698514 158.934736-59.073285 59.073285-59.073285 66.106879-125.180163 66.106879-234.890871zM579.119627 278.539218c0 49.235157 2.815663 105.492778-23.905316 130.81149-11.251524 11.240395-26.720979 16.871722-45.006097 16.871722-18.285118 0-33.754573-5.620198-45.017226-16.871722-26.70985-25.318712-25.307583-81.576333-25.307583-130.81149 0-47.82176 0-99.861451 21.089653-125.180163 11.251524-14.067188 29.536642-19.698514 49.235156-19.698514 19.698514 0 36.570236 5.631327 47.821761 19.698514 21.089652 25.318712 21.089652 77.358403 21.089652 125.180163z m7.033594 444.463032c0 57.671018 0 115.342035-22.503049 143.465281-12.653791 15.469455-32.352306 23.916445-53.441958 23.916445-21.100781 0-42.201563-8.44699-54.866483-23.916445-22.491919-29.536642-22.491919-85.805393-22.49192-143.454152 0-63.302344-1.413396-118.157699 22.503049-147.694341 12.653791-15.469455 33.754573-23.916445 54.855354-23.916445 21.089652 0 40.788167 8.44699 53.441958 23.916445 23.916445 29.536642 22.503049 84.391997 22.503049 147.683212z" p-id="2603"></path></svg>