<?xml version="1.0" standalone="no"?><!DOCTYPE svg PUBLIC "-//W3C//DTD SVG 1.1//EN" "http://www.w3.org/Graphics/SVG/1.1/DTD/svg11.dtd"><svg t="1506651296854" class="icon" style="" viewBox="0 0 1024 1024" version="1.1" xmlns="http://www.w3.org/2000/svg" p-id="1957" xmlns:xlink="http://www.w3.org/1999/xlink" width="48" height="48"><defs><style type="text/css"></style></defs><path d="M736.401004 727.235988c0-85.796129-4.229151-136.434653-30.939582-184.257453-12.665196-23.905835-33.766436-43.604778-57.6834-60.476867 23.916965-15.469791 42.20248-35.168733 54.867676-59.074568 22.503538-43.604778 25.308133-91.427578 25.308133-158.949321 0-98.450195-19.698942-163.156213-64.694889-208.163288C628.079079 21.145757 576.049386 0.044517 509.941071 0.044517c-61.879164 0-115.333413 19.698942-154.720169 57.672272C315.834147 95.690117 293.330609 146.328642 293.330609 223.699855v60.487996h149.099849v-70.337467c0-53.44312 29.537284-80.16468 67.510613-80.164679 22.503538 0 37.973329 8.436044 49.225098 22.503537 18.285516 23.905835 19.698942 67.510613 19.698942 118.149138 0 52.040822 0 101.277049-22.503538 126.596311-11.251769 12.654066-26.732689 19.687813-47.8228 19.687813h-49.236227V545.78313h49.236227c25.308133 0 43.593648 8.436044 56.258845 25.319262 21.10124 28.123857 22.503538 78.762382 22.503537 146.284125 0 61.879164-2.815725 120.964862-23.905835 147.686422-11.262898 14.067493-29.548414 25.319262-53.454249 25.319262-40.789053 0-74.54436-28.134987-74.54436-85.807258v-64.694889H286.296862v59.074569c0 80.175809 22.503538 127.987479 61.890294 165.971938 39.386756 37.973329 99.863622 59.074569 161.753915 59.074568 61.879164 0 120.964862-19.698942 160.351618-57.672271 63.292591-61.879164 66.108315-132.216631 66.108315-239.114z" p-id="1958"></path></svg>