<?xml version="1.0" standalone="no"?><!DOCTYPE svg PUBLIC "-//W3C//DTD SVG 1.1//EN" "http://www.w3.org/Graphics/SVG/1.1/DTD/svg11.dtd"><svg t="1506651265166" class="icon" style="" viewBox="0 0 1024 1024" version="1.1" xmlns="http://www.w3.org/2000/svg" p-id="1474" xmlns:xlink="http://www.w3.org/1999/xlink" width="48" height="48"><defs><style type="text/css"></style></defs><path d="M733.146428 798.958385V225.09726c0-80.174066-23.905316-127.995827-63.291215-165.96833C630.469313 21.145298 572.809425 0.044516 510.920477 0.044516 449.042658 0.044516 389.958244 21.145298 350.572345 59.12893 311.197574 97.101434 287.281129 144.923194 287.281129 225.09726V798.958385c0 80.174066 23.916445 127.984697 63.291216 165.96833 39.3859 37.972503 98.459184 59.073285 160.348132 59.073285 61.877819 0 119.548837-21.100781 158.934736-59.073285 39.3859-37.972503 63.291215-85.805393 63.291215-165.96833z m-149.085479 5.620198c0 57.671018-32.352306 85.805393-73.140472 85.805393s-74.542739-28.134375-74.54274-85.805393V219.465933c0-57.671018 33.754573-85.805393 74.54274-85.805392 40.788167 0 73.140472 28.134375 73.140472 85.805392v585.11265z" p-id="1475"></path></svg>