<?xml version="1.0" standalone="no"?><!DOCTYPE svg PUBLIC "-//W3C//DTD SVG 1.1//EN" "http://www.w3.org/Graphics/SVG/1.1/DTD/svg11.dtd"><svg t="1506651322299" class="icon" style="" viewBox="0 0 1024 1024" version="1.1" xmlns="http://www.w3.org/2000/svg" p-id="2731" xmlns:xlink="http://www.w3.org/1999/xlink" width="48" height="48"><defs><style type="text/css"></style></defs><path d="M739.755604 318.610286c0-122.30611-9.958681-180.606593-49.782153-237.500484-35.558681-51.2-96.70611-81.064791-177.770902-81.064791-73.953055 0-139.365275 24.182154-179.188747 81.064791-32.711736 46.923956-49.770901 102.4-49.770901 237.500484 0 149.323956 14.21222 203.370901 51.2 250.30611 32.700484 42.659165 81.053538 62.565275 135.100484 62.565274 21.323956 0 44.088264-4.264791 61.147428-17.059165L364.29644 1024h156.435692l177.770901-466.471385c24.182154-65.41222 41.241319-147.894857 41.241319-238.918329z m-150.753055 1.429099c0 61.147429 1.417846 130.835692-22.753054 162.118329-12.805626 17.070418-32.711736 25.6-54.046946 25.6s-42.659165-8.529582-55.464791-25.6c-24.170901-31.282637-22.753055-100.970901-22.753055-162.118329 0-61.158681-1.417846-128 22.753055-159.282638 12.805626-17.070418 32.711736-25.6 55.476044-25.6 21.323956 0 41.230066 8.529582 54.035693 25.6 24.170901 32.700484 22.753055 98.123956 22.753054 159.282638z" p-id="2732"></path></svg>