<?xml version="1.0" standalone="no"?><!DOCTYPE svg PUBLIC "-//W3C//DTD SVG 1.1//EN" "http://www.w3.org/Graphics/SVG/1.1/DTD/svg11.dtd"><svg t="1506651292113" class="icon" style="" viewBox="0 0 1024 1024" version="1.1" xmlns="http://www.w3.org/2000/svg" p-id="1828" xmlns:xlink="http://www.w3.org/1999/xlink" width="48" height="48"><defs><style type="text/css"></style></defs><path d="M741.072176 1024V888.899516H456.636484l228.970901-438.024439c32.711736-62.576527 55.464791-147.90611 55.464791-221.859165 0-81.064791-27.029099-137.958681-66.841319-174.923956C632.989538 15.697582 578.942593 0.045011 517.795165 0.045011 456.636484 0.045011 394.059956 21.38022 354.236484 59.785846 314.401758 98.18022 291.671209 146.533275 291.671209 227.598066v59.729582h150.741802V221.904176c0-58.311736 34.140835-86.758681 75.382154-86.758681s72.523956 29.876044 72.523956 88.18778c0 73.941802-18.488264 137.947429-41.241319 180.606593L295.947253 896.011253V1024h445.136176z" p-id="1829"></path></svg>