<?xml version="1.0" standalone="no"?><!DOCTYPE svg PUBLIC "-//W3C//DTD SVG 1.1//EN" "http://www.w3.org/Graphics/SVG/1.1/DTD/svg11.dtd"><svg t="1507703376933" class="icon" style="" viewBox="0 0 1024 1024" version="1.1" xmlns="http://www.w3.org/2000/svg" p-id="15376" xmlns:xlink="http://www.w3.org/1999/xlink" width="128" height="128"><defs><style type="text/css"></style></defs><path d="M512 224m-96 0a96 96 0 1 0 192 0 96 96 0 1 0-192 0Z" fill="#ffffff" p-id="15377"></path><path d="M512 800m-96 0a96 96 0 1 0 192 0 96 96 0 1 0-192 0Z" fill="#ffffff" p-id="15378"></path><path d="M1024 512a64 64 0 0 1-64 64H64a64 64 0 0 1 0-128h896a64 64 0 0 1 64 64z" fill="#ffffff" p-id="15379"></path></svg>