<?xml version="1.0" standalone="no"?><!DOCTYPE svg PUBLIC "-//W3C//DTD SVG 1.1//EN" "http://www.w3.org/Graphics/SVG/1.1/DTD/svg11.dtd"><svg t="1507703180318" class="icon" style="" viewBox="0 0 1024 1024" version="1.1" xmlns="http://www.w3.org/2000/svg" p-id="9181" xmlns:xlink="http://www.w3.org/1999/xlink" width="128" height="128"><defs><style type="text/css"></style></defs><path d="M588.856889 512l192.113778-192.170667c21.219556-21.162667 21.219556-55.580444 0-76.856889-21.219556-21.219556-55.637333-21.219556-76.856889 0L512 435.143111 319.886222 243.029333c-21.219556-21.219556-55.637333-21.219556-76.856889 0-21.219556 21.276444-21.219556 55.637333 0 76.856889L435.143111 512l-192.113778 192.113778c-21.219556 21.219556-21.219556 55.637333 0 76.856889 21.219556 21.219556 55.637333 21.219556 76.856889 0L512 588.856889l192.113778 192.113778c21.219556 21.219556 55.637333 21.219556 76.856889 0 21.219556-21.219556 21.219556-55.637333 0-76.856889L588.856889 512z" p-id="9182" fill="#ffffff"></path></svg>