<?xml version="1.0" standalone="no"?><!DOCTYPE svg PUBLIC "-//W3C//DTD SVG 1.1//EN" "http://www.w3.org/Graphics/SVG/1.1/DTD/svg11.dtd"><svg t="1506744517037" class="icon" style="" viewBox="0 0 1024 1024" version="1.1" xmlns="http://www.w3.org/2000/svg" p-id="4728" xmlns:xlink="http://www.w3.org/1999/xlink" width="64" height="64"><defs><style type="text/css"></style></defs><path d="M16.1024 887.6032H427.776v-77.7984h-150.5024V137.1392h-71.68a475.4176 475.4176 0 0 1-155.6224 53.248v59.3664h133.12v560.0512H16.2048v77.7984z m757.76 13.312c142.3104 0 233.4464-130.0224 233.4464-391.1168 0-260.0448-91.136-386.9952-233.4464-386.9952-143.36 0-234.4448 125.9264-234.4448 386.9952s91.0848 391.1168 234.4192 391.1168z m0-74.752c-85.9904 0-143.36-95.2064-143.36-316.3648 0-219.0848 57.344-311.2192 143.36-311.2192 84.992 0 142.3104 92.16 142.3104 311.2192-0.0256 221.1584-57.344 316.3648-142.336 316.3648z" fill="#333333" p-id="4729"></path></svg>