<?xml version="1.0" standalone="no"?><!DOCTYPE svg PUBLIC "-//W3C//DTD SVG 1.1//EN" "http://www.w3.org/Graphics/SVG/1.1/DTD/svg11.dtd"><svg t="1506651304996" class="icon" style="" viewBox="0 0 1024 1024" version="1.1" xmlns="http://www.w3.org/2000/svg" p-id="2215" xmlns:xlink="http://www.w3.org/1999/xlink" width="48" height="48"><defs><style type="text/css"></style></defs><path d="M738.668044 671.274014c0-123.695411-5.692576-217.532921-48.341899-270.149878-32.704189-41.231804-73.935993-61.133321-136.498083-61.133321-25.594094 0-51.188187 7.110095-72.507224 18.483999-19.912767 11.373903-38.396766 29.857901-52.616956 48.341899v-271.578647h298.579009V0.180002H290.79953v582.949078h143.608178v-21.319036c0-55.463245 32.704189-86.738665 75.353512-86.738665 24.176575 0 45.506861 9.956384 58.298283 31.27542 19.912767 31.28667 19.912767 95.266279 19.912767 179.158656 0 83.892376 0 162.092177-22.759055 191.950077-14.220191 19.901517-31.27542 27.000363-55.451995 27.000363-42.649323 0-75.353512-27.000363-75.353512-88.144934v-69.672185H283.678184v49.770668c0 81.046088 24.176575 130.805506 63.990859 169.202272C387.460828 1003.974731 447.18788 1023.876248 509.74997 1023.876248s120.860373-22.747805 160.674657-62.55084c66.825897-66.825897 68.243416-156.41085 68.243417-290.062644z" p-id="2216"></path></svg>