<?xml version="1.0" standalone="no"?><!DOCTYPE svg PUBLIC "-//W3C//DTD SVG 1.1//EN" "http://www.w3.org/Graphics/SVG/1.1/DTD/svg11.dtd"><svg t="1506651310014" class="icon" style="" viewBox="0 0 1024 1024" version="1.1" xmlns="http://www.w3.org/2000/svg" p-id="2344" xmlns:xlink="http://www.w3.org/1999/xlink" width="48" height="48"><defs><style type="text/css"></style></defs><path d="M739.289273 705.473229c0-149.305908-14.221753-203.335069-51.193812-250.264606-32.707783-42.66526-79.626067-62.557713-133.66648-62.557713-21.321379 0-45.50061 4.253024-62.557713 17.057103L658.223028 0.168771H501.817495L324.06808 466.595027C299.911351 531.999341 282.831746 614.472009 282.831746 705.473229c0 122.302579 11.375152 180.584764 51.193811 237.471778 35.554384 51.193812 95.276747 81.054993 176.320489 81.054993 73.944117 0 140.777357-24.16798 180.596016-81.054993 32.707783-46.918285 48.347211-102.387623 48.347211-237.471778z m-150.734835-1.417675c0 61.140038 1.428926 127.973278-22.750304 159.263385-12.792827 17.057103-31.278856 25.596906-54.029162 25.596906-21.33263 0-42.66526-8.539803-55.469339-25.596906-24.16798-32.707783-22.739054-98.112096-22.739053-159.263385 0-61.151289-1.428926-130.819879 22.750305-162.109987 12.792827-17.057103 34.125457-25.596906 55.458087-25.596906 21.33263 0 41.236334 8.539803 54.029162 25.596906 24.179231 31.278856 22.750305 100.958697 22.750304 162.109987z" p-id="2345"></path></svg>