<?xml version="1.0" standalone="no"?><!DOCTYPE svg PUBLIC "-//W3C//DTD SVG 1.1//EN" "http://www.w3.org/Graphics/SVG/1.1/DTD/svg11.dtd"><svg t="1506657541161" class="icon" style="" viewBox="0 0 1024 1024" version="1.1" xmlns="http://www.w3.org/2000/svg" p-id="11090" xmlns:xlink="http://www.w3.org/1999/xlink" width="128" height="128"><defs><style type="text/css"></style></defs><path d="M552.783 759.075H451.707V710.95c-3.217-89.814 38.507-165.218 125.138-226.213 99.398-67.395 144.408-139.582 134.79-216.595-12.836-93.031-70.612-144.408-173.297-154.026-131.606-6.435-210.194 59.386-235.865 197.325l-101.075-33.68C243.053 101.314 358.573 16.257 547.957 22.658c170.079 9.618 261.536 93.1 274.371 250.31 6.435 99.5-51.342 190.958-173.296 274.371-67.395 44.942-99.501 101.076-96.284 168.47l0.035 43.265z m9.618 240.657V879.387H437.263v120.345h125.138z" fill="" p-id="11091"></path></svg>