<?xml version="1.0" standalone="no"?><!DOCTYPE svg PUBLIC "-//W3C//DTD SVG 1.1//EN" "http://www.w3.org/Graphics/SVG/1.1/DTD/svg11.dtd"><svg t="1506667283635" class="icon" style="" viewBox="0 0 1024 1024" version="1.1" xmlns="http://www.w3.org/2000/svg" p-id="1787" xmlns:xlink="http://www.w3.org/1999/xlink" width="64" height="64"><defs><style type="text/css"></style></defs><path d="M941.097793 455.58708c-2.65251 3.366805-5.619188 6.527918-8.884682 9.433195-2.067157 1.840998-4.238695 3.567381-6.503358 5.169939l-185.358491 134.670163 71.111225 218.858714c9.863 30.356508-0.941477 63.610106-26.763543 82.372114-12.911545 9.379981-28.108219 14.069971-43.304893 14.069971-15.196674 0-30.394372-4.68999-43.304893-14.069971L511.915062 770.827502 325.743012 906.091206c-12.912568 9.381004-28.107195 14.069971-43.304893 14.069971-15.194627 0-30.395395-4.691014-43.304893-14.069971-25.822066-18.760985-36.627566-52.015606-26.763543-82.372114l71.111225-218.858714L97.307835 469.599744c-25.822066-18.760985-36.627566-52.015606-26.763543-82.371091 9.863-30.355484 38.151327-50.90937 70.06946-50.90937l230.12165 0 71.111225-218.858714c9.863-30.355484 38.151327-50.908347 70.06946-50.908347s60.20646 20.552862 70.06946 50.908347l71.111225 218.858714 230.12165 0 0.00921 0c0.01228 0 0.025584 0 0.03684 0 0.017397 0 0.035817 0 0.053214 0 40.045539 0.048097 72.600192 32.045027 73.558043 71.870547l0 0.008187c0 0.010233 0 0.017397 0 0.026607 0.02149 0.897474 0.026607 1.794947 0.01535 2.690374C956.685385 427.773585 950.816501 443.269076 941.097793 455.58708z" fill="#f4ea2a" p-id="1788"></path></svg>