<?xml version="1.0" standalone="no"?><!DOCTYPE svg PUBLIC "-//W3C//DTD SVG 1.1//EN" "http://www.w3.org/Graphics/SVG/1.1/DTD/svg11.dtd"><svg t="1504006488305" class="icon" style="" viewBox="0 0 1024 1024" version="1.1" xmlns="http://www.w3.org/2000/svg" p-id="2353" xmlns:xlink="http://www.w3.org/1999/xlink" width="128" height="128"><defs><style type="text/css"></style></defs><path d="M897.915892 900.053264c0-31.7034-25.654725-57.358125-57.358125-57.358125H183.442233c-31.7034 0-57.358125 25.654725-57.358125 57.358125s25.654725 57.358125 57.358125 57.358125H840.557767c31.7034 0 57.358125-25.759012 57.358125-57.358125zM68.204546 435.765316c0.938587 0 1.772887 0 2.711475-0.104287l90.9387 329.131348h700.290558l90.9387-329.131348c0.937545 0 1.771845 0.104287 2.711475 0.104287 37.647787 0 68.204025-30.556237 68.204025-68.204024s-30.55728-68.204025-68.204025-68.204025-68.204025 30.556237-68.204025 68.204025c0 7.300125 1.148205 14.391675 3.3372 20.961787l-164.461386 96.153075-176.767312-293.047874c18.355643-12.201637 30.55728-33.163425 30.55728-56.836687 0-37.647787-30.55728-68.204025-68.204024-68.204025s-68.204025 30.556237-68.204025 68.204025c0 23.77755 12.098393 44.63505 30.55728 56.836687l-176.767311 293.047874-164.461387-96.153075c2.08575-6.570112 3.3372-13.661662 3.3372-20.961787 0-37.647787-30.556237-68.204025-68.204025-68.204025-37.752075 0-68.308312 30.556237-68.308312 68.204025s30.554152 68.204025 68.201939 68.204024z" p-id="2354" fill="#bfbfbf"></path></svg>