<?xml version="1.0" standalone="no"?><!DOCTYPE svg PUBLIC "-//W3C//DTD SVG 1.1//EN" "http://www.w3.org/Graphics/SVG/1.1/DTD/svg11.dtd"><svg t="1506675153777" class="icon" style="" viewBox="0 0 1024 1024" version="1.1" xmlns="http://www.w3.org/2000/svg" p-id="6646" xmlns:xlink="http://www.w3.org/1999/xlink" width="64" height="64"><defs><style type="text/css"></style></defs><path d="M483.2 1008c-32-3.2-67.2-6.4-99.2-16l9.6-32c28.8 6.4 60.8 12.8 92.8 16l-3.2 32z m99.2-6.4l-3.2-32c32-3.2 60.8-12.8 89.6-22.4l9.6 28.8c-32 12.8-64 22.4-96 25.6z m-288-44.8c-28.8-16-57.6-32-83.2-51.2l19.2-25.6c25.6 19.2 51.2 35.2 80 48l-16 28.8z m473.6-19.2l-16-28.8c25.6-16 51.2-35.2 73.6-54.4l22.4 22.4c-25.6 22.4-51.2 41.6-80 60.8zM137.6 838.4c-22.4-25.6-41.6-51.2-57.6-80l28.8-16c16 25.6 32 51.2 54.4 76.8l-25.6 19.2z m774.4-35.2l-25.6-19.2c19.2-25.6 35.2-51.2 48-80l28.8 12.8c-12.8 32-32 60.8-51.2 86.4zM41.6 665.6c-9.6-32-16-64-22.4-96l32-3.2c3.2 32 9.6 60.8 19.2 89.6l-28.8 9.6z m953.6-41.6l-32-6.4c6.4-28.8 9.6-60.8 12.8-92.8h32c0 35.2-6.4 67.2-12.8 99.2zM51.2 473.6l-32-3.2c3.2-32 9.6-67.2 19.2-96l32 9.6c-12.8 25.6-19.2 57.6-19.2 89.6z m918.4-41.6c-6.4-32-12.8-60.8-25.6-89.6l28.8-12.8c12.8 32 22.4 64 25.6 96l-28.8 6.4zM102.4 294.4l-28.8-16c16-28.8 35.2-57.6 54.4-83.2l25.6 19.2c-19.2 28.8-38.4 54.4-51.2 80z m800-32c-16-25.6-35.2-51.2-57.6-73.6l22.4-22.4c22.4 22.4 44.8 51.2 60.8 76.8l-25.6 19.2zM217.6 153.6L198.4 128c25.6-22.4 54.4-38.4 83.2-54.4l16 28.8c-28.8 12.8-54.4 32-80 51.2zM774.4 128c-25.6-16-54.4-32-80-44.8l12.8-28.8c28.8 12.8 60.8 28.8 86.4 48l-19.2 25.6zM380.8 67.2l-9.6-32c32-9.6 64-16 96-19.2l3.2 32c-28.8 3.2-60.8 9.6-89.6 19.2z m224-9.6c-28.8-6.4-60.8-9.6-92.8-9.6v-32c32 0 67.2 3.2 99.2 9.6l-6.4 32z" fill="#ffffff" p-id="6647"></path></svg>